<svg xmlns="http://www.w3.org/2000/svg" xmlns:xlink="http://www.w3.org/1999/xlink" version="1.1" width="358.001pt" height="72.7165pt" viewBox="0 0 358.001 72.7165">
<defs>
<clipPath id="clip_0">
<path transform="matrix(1,0,0,-1,0,72.7165)" d="M5.508 5.057H352.49299V67.659008H5.508Z"/>
</clipPath>
</defs>
<g id="layer_1" data-name="">
<g clip-path="url(#clip_0)">
<path transform="matrix(1,0,0,-1,237.9655,27.3475)" d="M0 0V.969C-.736 1.183-1.725 1.395-2.946 1.395-4.827 1.395-5.873 .582-5.873-.678V-.718C-5.873-1.977-4.709-2.714-3.354-2.714-1.513-2.714 0-1.589 0 0M-7.384-.776V-.736C-7.384 1.376-5.64 2.501-3.101 2.501-1.822 2.501-.91 2.325-.019 2.074V2.423C-.019 4.224-1.125 5.155-3.004 5.155-4.187 5.155-5.117 4.845-6.047 4.418L-6.493 5.64C-5.388 6.144-4.303 6.473-2.85 6.473-1.434 6.473-.349 6.104 .388 5.369 1.065 4.69 1.415 3.72 1.415 2.442V-3.683H-.019V-2.17C-.717-3.082-1.88-3.896-3.645-3.896-5.504-3.896-7.384-2.829-7.384-.776" fill="#111971"/>
<path transform="matrix(1,0,0,-1,248.3762,21.0103)" d="M0 0H1.492V-1.686C2.15-.698 3.042 .213 4.729 .213 6.356 .213 7.404-.658 7.946-1.783 8.662-.678 9.73 .213 11.474 .213 13.78 .213 15.194-1.337 15.194-3.818V-10.02H13.702V-4.167C13.702-2.228 12.732-1.143 11.106-1.143 9.593-1.143 8.353-2.267 8.353-4.244V-10.02H6.861V-4.127C6.861-2.248 5.872-1.143 4.283-1.143 2.694-1.143 1.492-2.461 1.492-4.302V-10.02H0Z" fill="#111971"/>
<path transform="matrix(1,0,0,-1,274.1574,25.467499)" d="M0 0C-.155 1.822-1.201 3.41-3.198 3.41-4.942 3.41-6.26 1.958-6.454 0ZM-7.965-.582V-.543C-7.965 2.344-5.931 4.67-3.16 4.67-.194 4.67 1.512 2.307 1.512-.621 1.512-.814 1.512-.931 1.491-1.104H-6.454C-6.24-3.275-4.71-4.496-2.926-4.496-1.55-4.496-.582-3.935 .233-3.082L1.162-3.915C.155-5.039-1.066-5.795-2.965-5.795-5.717-5.795-7.965-3.682-7.965-.582" fill="#111971"/>
<path transform="matrix(1,0,0,-1,278.2874,21.0103)" d="M0 0H1.493V-1.686C2.151-.698 3.042 .213 4.729 .213 6.356 .213 7.404-.658 7.946-1.783 8.663-.678 9.731 .213 11.474 .213 13.78 .213 15.195-1.337 15.195-3.818V-10.02H13.702V-4.167C13.702-2.228 12.733-1.143 11.105-1.143 9.594-1.143 8.354-2.267 8.354-4.244V-10.02H6.862V-4.127C6.862-2.248 5.873-1.143 4.284-1.143 2.695-1.143 1.493-2.461 1.493-4.302V-10.02H0Z" fill="#111971"/>
<path transform="matrix(1,0,0,-1,305.3094,26.049099)" d="M0 0V.039C0 2.404-1.628 3.915-3.527 3.915-5.387 3.915-7.152 2.344-7.152 .058V.018C-7.152-2.307-5.387-3.857-3.527-3.857-1.589-3.857 0-2.423 0 0M-7.092-3.062V-4.981H-8.586V9.167H-7.092V3.024C-6.279 4.225-5.097 5.253-3.256 5.253-.852 5.253 1.531 3.353 1.531 .058V.018C1.531-3.256-.834-5.194-3.256-5.194-5.117-5.194-6.318-4.186-7.092-3.062" fill="#111971"/>
<path transform="matrix(1,0,0,-1,316.9411,25.467499)" d="M0 0C-.155 1.822-1.201 3.41-3.198 3.41-4.943 3.41-6.261 1.958-6.455 0ZM-7.965-.582V-.543C-7.965 2.344-5.932 4.67-3.16 4.67-.195 4.67 1.512 2.307 1.512-.621 1.512-.814 1.512-.931 1.491-1.104H-6.455C-6.241-3.275-4.71-4.496-2.927-4.496-1.551-4.496-.582-3.935 .232-3.082L1.162-3.915C.154-5.039-1.067-5.795-2.965-5.795-5.718-5.795-7.965-3.682-7.965-.582" fill="#111971"/>
<path transform="matrix(1,0,0,-1,321.0719,21.0103)" d="M0 0H1.492V-2.617C2.228-.949 3.682 .252 5.582 .175V-1.434H5.465C3.275-1.434 1.492-3.004 1.492-6.027V-10.02H0Z" fill="#111971"/>
<path transform="matrix(1,0,0,-1,343.0331,26.068299)" d="M0 0V.039C0 2.19-1.61 3.953-3.721 3.953-5.892 3.953-7.384 2.19-7.384 .077V.039C-7.384-2.112-5.795-3.857-3.682-3.857-1.513-3.857 0-2.112 0 0M-8.915 0V.039C-8.915 2.868-6.706 5.272-3.682 5.272-.679 5.272 1.531 2.907 1.531 .077V.039C1.531-2.791-.698-5.195-3.721-5.195-6.726-5.195-8.915-2.83-8.915 0" fill="#111971"/>
<path transform="matrix(1,0,0,-1,347.823,22.328198)" d="M0 0H-1.376V1.298H0V2.171C0 3.314 .31 4.187 .873 4.748 1.377 5.253 2.112 5.524 3.024 5.524 3.72 5.524 4.187 5.446 4.671 5.272V3.973C4.128 4.128 3.72 4.225 3.218 4.225 2.053 4.225 1.474 3.527 1.474 2.093V1.279H4.652V0H1.492V-8.702H0Z" fill="#111971"/>
<path transform="matrix(1,0,0,-1,351.3698,42.4558)" d="M0 0C0 2.888-2.315 4.669-5.531 4.669H-10.999V-8.93H-8.111V-4.75H-5.531C-2.315-4.75 0-2.949 0 0M-2.992-.081C-2.992-1.454-4.035-2.273-5.694-2.273H-8.111V2.213H-5.694C-4.015 2.213-2.992 1.373-2.992-.081" fill="#111971"/>
<path transform="matrix(1,0,0,-1,337.8218,44.6259)" d="M0 0C0 4.506-2.785 6.839-7.108 6.839H-12.596V-6.76H-7.108C-2.766-6.76 0-4.178 0 0M-3.011-.02C-3.011-2.887-4.691-4.26-7.108-4.26H-9.707V4.362H-7.108C-4.669 4.362-3.011 3.031-3.011-.02" fill="#111971"/>
<path transform="matrix(1,0,0,-1,320.5024,51.3853)" d="M0 0H3.134C1.168 4.567-.819 9.094-2.785 13.683H-6.267C-8.232 9.094-10.117 4.567-12.083 0H-9.051L-8.867 .451C-8.09 2.356-6.553 3.379-4.526 3.379-2.499 3.379-.962 2.356-.183 .451ZM-4.526 5.51C-5.303 5.51-6.287 5.345-7.107 4.772L-4.526 11.244-1.945 4.772C-2.764 5.345-3.748 5.51-4.526 5.51" fill="#111971"/>
<path transform="matrix(1,0,0,-1,230.5803,44.6419)" d="M0 0V.039C0 3.896 3.005 7.055 7.114 7.055 9.556 7.055 11.028 6.396 12.444 5.195L10.563 2.927C9.516 3.799 8.587 4.304 7.016 4.304 4.846 4.304 3.121 2.384 3.121 .078V.039C3.121-2.441 4.827-4.263 7.229-4.263 8.315-4.263 9.284-3.992 10.04-3.45V-1.512H7.036V1.067H12.927V-4.826C11.532-6.007 9.613-6.977 7.132-6.977 2.908-6.977 0-4.011 0 0" fill="#111971"/>
<path transform="matrix(1,0,0,-1,246.0696,40.9982)" d="M0 0H2.946V-2.093C3.548-.658 4.515 .271 6.261 .195V-2.887H6.105C4.147-2.887 2.946-4.07 2.946-6.55V-10.388H0Z" fill="#111971"/>
<path transform="matrix(1,0,0,-1,261.7314,46.2505)" d="M0 0V.039C0 1.57-1.105 2.907-2.732 2.907-4.419 2.907-5.427 1.609-5.427 .079V.039C-5.427-1.491-4.321-2.829-2.693-2.829-1.007-2.829 0-1.531 0 0M-8.334 0V.039C-8.334 3.024-5.93 5.447-2.693 5.447 .524 5.447 2.907 3.062 2.907 .079V.039C2.907-2.946 .503-5.369-2.732-5.369-5.949-5.369-8.334-2.984-8.334 0" fill="#111971"/>
<path transform="matrix(1,0,0,-1,266.6956,47.7229)" d="M0 0V6.725H2.946V.931C2.946-.465 3.605-1.183 4.729-1.183 5.852-1.183 6.57-.465 6.57 .931V6.725H9.515V-3.663H6.57V-2.19C5.892-3.062 5.019-3.857 3.527-3.857 1.298-3.857 0-2.384 0 0" fill="#111971"/>
<path transform="matrix(1,0,0,-1,286.8152,46.2109)" d="M0 0V.039C0 1.764-1.163 2.908-2.538 2.908-3.914 2.908-5.058 1.764-5.058 .039V0C-5.058-1.726-3.914-2.868-2.538-2.868-1.163-2.868 0-1.745 0 0M-7.965 5.212H-5.02V3.72C-4.302 4.69-3.314 5.407-1.783 5.407 .64 5.407 2.947 3.507 2.947 .039V0C2.947-3.47 .678-5.369-1.783-5.369-3.353-5.369-4.321-4.652-5.02-3.819V-8.276H-7.965Z" fill="#111971"/>
<path transform="matrix(1,0,0,-1,298.7576,45.3776)" d="M0 0C-.176 1.318-.951 2.209-2.19 2.209-3.412 2.209-4.206 1.337-4.438 0ZM-7.326-.873V-.834C-7.326 2.132-5.214 4.574-2.19 4.574 1.279 4.574 2.868 1.88 2.868-1.067 2.868-1.299 2.85-1.57 2.829-1.842H-4.4C-4.109-3.178-3.179-3.877-1.861-3.877-.873-3.877-.155-3.567 .658-2.811L2.344-4.303C1.376-5.504-.018-6.241-1.9-6.241-5.02-6.241-7.326-4.051-7.326-.873" fill="#111971"/>
<path transform="matrix(1,0,0,-1,146.0666,34.0953)" d="M0 0 28.277 28.277 56.555 0 28.277-28.277ZM28.277 29.038-.761 0 28.277-29.039 57.315 0Z" fill="#111971"/>
<path transform="matrix(1,0,0,-1,0,72.7165)" d="M174.303 28.681H174.821V55.697999H174.303Z" fill="#111971"/>
<path transform="matrix(1,0,0,-1,173.303,44.114099)" d="M0 0-1.685 17.443-2.155 17.148-.514-.074C-.338-.043-.165-.018 0 0" fill="#111971"/>
<path transform="matrix(1,0,0,-1,176.3354,44.186899)" d="M0 0 1.634 17.158 1.166 17.452-.513 .072C-.346 .053-.174 .03 0 0" fill="#111971"/>
<path transform="matrix(1,0,0,-1,171.8171,44.3941)" d="M0 0-2.074 10.196-2.507 9.878-.498-.145C-.33-.091-.162-.043 0 0" fill="#111971"/>
<path transform="matrix(1,0,0,-1,170.4139,44.8695)" d="M0 0-2.166 7.202-2.574 6.852-.475-.211C-.327-.141-.169-.07 0 0" fill="#111971"/>
<path transform="matrix(1,0,0,-1,169.2085,45.464303)" d="M0 0-2.112 5.499-2.512 5.1-.449-.274C-.305-.18-.155-.087 0 0" fill="#111971"/>
<path transform="matrix(1,0,0,-1,168.0891,46.197099)" d="M0 0-2.197 4.356-2.583 3.97-.413-.33C-.268-.208-.132-.1 0 0" fill="#111971"/>
<path transform="matrix(1,0,0,-1,167.1199,47.0258)" d="M0 0-2.407 3.771-2.782 3.396-.374-.379C-.247-.244-.125-.12 0 0" fill="#111971"/>
<path transform="matrix(1,0,0,-1,181.4499,46.527399)" d="M0 0 2.204 4.367 1.817 4.752-.413 .33C-.276 .226-.137 .114 0 0" fill="#111971"/>
<path transform="matrix(1,0,0,-1,180.3663,45.7375)" d="M0 0 2.065 5.379 1.665 5.779-.449 .274C-.301 .189-.149 .097 0 0" fill="#111971"/>
<path transform="matrix(1,0,0,-1,179.1856,45.080904)" d="M0 0 2.098 7.059 1.691 7.409-.474 .211C-.302 .139-.146 .069 0 0" fill="#111971"/>
<path transform="matrix(1,0,0,-1,177.8067,44.5393)" d="M0 0 2.02 10.079 1.586 10.396-.498 .145C-.334 .101-.166 .053 0 0" fill="#111971"/>
<path transform="matrix(1,0,0,-1,182.3767,47.4045)" d="M0 0 2.38 3.739 2.005 4.114-.374 .38C-.247 .26-.123 .132 0 0" fill="#111971"/>
<path transform="matrix(1,0,0,-1,10.8779,57.3971)" d="M0 0H-.026L-1.228-3.72H1.172ZM-2.539-7.675H-5.37L-1.408 2.94H1.4L5.358-7.675H2.481L1.828-5.772H-1.869Z" fill="#111971"/>
<path transform="matrix(1,0,0,-1,0,72.7165)" d="M20.601 7.644H18.078V15.359H20.601ZM18.078 18.26H20.601V16.328001H18.078Z" fill="#111971"/>
<path transform="matrix(1,0,0,-1,25.7725,65.0719)" d="M0 0H-2.523V7.715H-.076V6.364H-.049C.33 7.366 1.102 7.866 2.273 7.866 2.495 7.866 2.697 7.848 2.864 7.808V5.5C2.495 5.601 2.177 5.647 1.897 5.647 1.306 5.647 .837 5.472 .503 5.115 .166 4.764 0 4.335 0 3.82Z" fill="#111971"/>
<path transform="matrix(1,0,0,-1,36.2892,61.133)" d="M0 0C0 .565-.106 1.033-.325 1.398-.589 1.843-.981 2.071-1.493 2.071-1.906 2.071-2.246 1.924-2.519 1.639-2.864 1.268-3.038 .726-3.038 0-3.038-1.487-2.526-2.225-1.509-2.225-.996-2.225-.601-1.992-.325-1.517-.106-1.108 0-.604 0 0M-2.952-6.526H-5.474V3.775H-3.068V2.888H-3.038C-2.532 3.627-1.827 4.003-.917 4.003 .221 4.003 1.096 3.563 1.709 2.689 2.259 1.921 2.525 .938 2.525-.254 2.525-1.331 2.259-2.237 1.723-2.959 1.122-3.761 .307-4.163-.725-4.163-1.664-4.163-2.394-3.812-2.917-3.108H-2.952Z" fill="#111971"/>
<path transform="matrix(1,0,0,-1,44.9033,59.062)" d="M0 0C-.535 0-.935-.239-1.205-.718-1.421-1.092-1.532-1.573-1.532-2.16-1.532-2.745-1.421-3.225-1.205-3.601-.935-4.064-.535-4.297 0-4.297 .534-4.297 .939-4.064 1.211-3.601 1.433-3.217 1.541-2.733 1.541-2.16 1.541-1.585 1.433-1.105 1.211-.718 .939-.239 .534 0 0 0M0-6.234C-1.187-6.234-2.161-5.844-2.925-5.072-3.675-4.297-4.056-3.326-4.056-2.16-4.056-.989-3.675-.018-2.925 .756-2.161 1.538-1.187 1.931 0 1.931 1.184 1.931 2.156 1.538 2.923 .756 3.683-.018 4.064-.989 4.064-2.16 4.064-3.326 3.683-4.297 2.923-5.072 2.156-5.844 1.184-6.234 0-6.234" fill="#111971"/>
<path transform="matrix(1,0,0,-1,53.7617,65.0719)" d="M0 0H-2.522V7.715H-.072V6.364H-.049C.333 7.366 1.107 7.866 2.271 7.866 2.495 7.866 2.695 7.848 2.864 7.808V5.5C2.495 5.601 2.173 5.647 1.897 5.647 1.305 5.647 .842 5.472 .504 5.115 .169 4.764 0 4.335 0 3.82Z" fill="#111971"/>
<path transform="matrix(1,0,0,-1,61.8084,57.3573)" d="M0 0H1.558V-1.635H0V-5.141C0-5.638 .302-5.89 .903-5.89 .975-5.89 1.083-5.881 1.215-5.869 1.366-5.862 1.475-5.851 1.558-5.851V-7.715C1.437-7.715 1.211-7.731 .876-7.758 .579-7.781 .343-7.787 .177-7.787-.892-7.787-1.605-7.6-1.972-7.222-2.335-6.847-2.52-6.13-2.52-5.07V-1.635H-3.799V0H-2.52V2.339H0Z" fill="#111971"/>
<path transform="matrix(1,0,0,-1,68.87,65.2964)" d="M0 0C-1.053 0-1.899 .192-2.532 .582-3.323 1.049-3.735 1.772-3.767 2.767H-1.359C-1.359 2.398-1.227 2.111-.944 1.904-.708 1.728-.395 1.637-.013 1.637 .288 1.637 .541 1.695 .763 1.816 1.04 1.967 1.176 2.177 1.176 2.454 1.176 2.713 1.029 2.911 .735 3.048 .621 3.088 .358 3.166-.055 3.273-.599 3.39-1.144 3.515-1.685 3.645-2.296 3.813-2.754 4.039-3.052 4.316-3.438 4.67-3.63 5.168-3.63 5.802-3.63 6.646-3.235 7.266-2.446 7.675-1.822 8-1.047 8.164-.114 8.164 2.182 8.164 3.362 7.333 3.434 5.665H1.104C1.104 6.244 .728 6.526-.025 6.526-.747 6.526-1.11 6.338-1.11 5.947-1.11 5.642-.777 5.393-.114 5.207 .498 5.086 1.117 4.96 1.742 4.832 2.436 4.687 2.956 4.38 3.298 3.909 3.567 3.556 3.704 3.171 3.704 2.754 3.704 1.8 3.298 1.083 2.497 .596 1.843 .201 1.015 0 0 0" fill="#111971"/>
<path transform="matrix(1,0,0,-1,0,72.7165)" d="M83.593 55.912H118.107V21.330998H83.593Z" fill="#111971"/>
<path transform="matrix(1,0,0,-1,90.1318,24.341)" d="M0 0H1.899L10.734-21.791H11.758L17.977-3.846C19.25-.19 19.589 0 20.391 0H21.754V1.009H14.799V0H15.922C17.786 0 17.92-.457 17.819-.722L13.339-13.722 7.772 0H10.334V1.009H0Z" fill="#ffffff"/>
<path transform="matrix(1,0,0,-1,0,72.7165)" d="M44.553 55.912H79.066V21.330998H44.553Z" fill="#111971"/>
<path transform="matrix(1,0,0,-1,58.7197,37.6252)" d="M0 0 2.115 5.672 4.185 0ZM12.637-7.517 4.372 14.293H3.062L-4.805-6.545C-5.165-7.554-6.628-7.517-7.425-7.517V-8.507H-.532V-7.517C-1.002-7.517-3.531-7.786-3.531-6.946-3.531-6.641-3.229-5.674-2.866-4.679L-1.991-2.269H4.831L6.633-7.517H4.07V-8.507H14.637V-7.517Z" fill="#ffffff"/>
<path transform="matrix(1,0,0,-1,0,72.7165)" d="M5.509 55.912H40.022V21.330998H5.509Z" fill="#111971"/>
<path transform="matrix(1,0,0,-1,12.6267,31.075398)" d="M0 0H.91C1.994 4.033 3.096 6.586 7.677 6.244V-14.064H4.939V-15.056H15.995V-14.064H13.262V6.244C17.842 6.586 18.943 4.033 20.045 0H20.94L20.596 7.253H.339Z" fill="#ffffff"/>
</g>
</g>
</svg>
